<svg width="19" height="14" viewBox="0 0 19 14" fill="none" xmlns="http://www.w3.org/2000/svg">
<g clip-path="url(#clip0_2249_1261)">
<g clip-path="url(#clip1_2249_1261)">
<path d="M-0.313721 9.38635H18.5139V14.1591H-0.313721V9.38635Z" fill="#1EB53A"/>
<path d="M-0.313721 -0.159088H18.5139V4.61364H-0.313721V-0.159088Z" fill="#0099B5"/>
<path d="M-0.313721 4.42273H18.5139V9.57727H-0.313721V4.42273Z" fill="#CE1126"/>
<path d="M-0.313721 4.70911H18.5139V9.29092H-0.313721V4.70911Z" fill="white"/>
<path d="M3.64004 3.85C4.57588 3.85 5.33452 3.08074 5.33452 2.13182C5.33452 1.18289 4.57588 0.413635 3.64004 0.413635C2.7042 0.413635 1.94556 1.18289 1.94556 2.13182C1.94556 3.08074 2.7042 3.85 3.64004 3.85Z" fill="white"/>
<path d="M4.20498 3.85C5.14082 3.85 5.89946 3.08074 5.89946 2.13182C5.89946 1.18289 5.14082 0.413635 4.20498 0.413635C3.26914 0.413635 2.5105 1.18289 2.5105 2.13182C2.5105 3.08074 3.26914 3.85 4.20498 3.85Z" fill="#0099B5"/>
<path d="M7.36733 3.16333L7.26001 3.48978L7.42381 3.54706" fill="white"/>
</g>
</g>
<defs>
<clipPath id="clip0_2249_1261">
<rect width="18.2" height="14" rx="2" fill="white"/>
</clipPath>
<clipPath id="clip1_2249_1261">
<rect width="18.8276" height="14.3182" fill="white" transform="translate(-0.313721 -0.159088)"/>
</clipPath>
</defs>
</svg>
